#!OML:ASF C:\ViconDB\ViconDB\414\Spring2016\041811\Spring2016.ASF
:FULLY-SPECIFIED
:DEGREES
385
root 10.2483 15.104 -11.9331 43.0843 15.3279 281.617
lowerback 33.5332 2.14941 -7.20991
upperback 11.2769 -1.21197 -11.3791
thorax -4.94053 -0.818694 -7.79897
lowerneck -21.8019 6.21166 2.99284
upperneck 31.582 -0.639387 25.5663
head 15.2135 2.87944 10.4068
rclavicle -4.53229e-014 6.67916e-014
rhumerus -23.6345 -52.8965 29.1168
rradius 29.5156
rwrist 22.3704
rhand -49.682 -37.2124
rfingers 7.12502
rthumb -22.2839 -65.9475
lclavicle -4.53229e-014 6.67916e-014
lhumerus 1.50907 17.291 6.66573
lradius 36.4766
lwrist 23.0173
lhand -56.379 265.629
lfingers 7.12502
lthumb -28.6984 -122.186
rfemur 181.406 237.056 -146.821
rtibia -78.3035
rfoot 162.717 -121.778
rtoes -14.7409
lfemur -72.1685 31.3253 25.116
ltibia 72.1372
lfoot -22.1673 -14.5476
ltoes -3.1414
386
root 10.1788 14.8924 -12.0648 44.0078 14.4444 284.418
lowerback 33.6592 1.74417 -7.4019
upperback 11.4276 -1.72178 -11.4105
thorax -4.85741 -1.03997 -7.55624
lowerneck -21.6032 5.82967 2.43298
upperneck 31.5538 -1.17522 26.0446
head 15.261 2.60204 10.6486
rclavicle -9.54166e-014 1.43125e-013
rhumerus -28.8446 -50.7711 31.7011
rradius 28.612
rwrist 24.7285
rhand -48.6944 -35.8566
rfingers 7.12502
rthumb -21.3355 -64.7021
lclavicle -9.54166e-014 1.43125e-013
lhumerus 1.2973 15.4227 8.32816
lradius 36.73
lwrist 23.8909
lhand -56.1946 265.031
lfingers 7.12502
lthumb -28.5222 -122.814
rfemur 185.16 236.68 -147.783
rtibia -79.6879
rfoot 164.763 -125.249
rtoes -18.6713
lfemur -75.9187 32.0058 21.2628
ltibia 75.4885
lfoot -20.28 -20.3862
ltoes 0.751563
387
root 10.0759 14.7421 -12.2914 46.8019 17.4239 287.724
lowerback 32.3884 -0.526685 -4.86625
upperback 11.6814 -3.30091 -10.6751
thorax -4.37185 -1.69043 -7.56935
lowerneck -21.4249 5.50051 1.92307
upperneck 31.4022 -1.58314 26.3824
head 15.2298 2.37566 10.8126
rclavicle -6.36111e-015 -6.04305e-014
rhumerus -33.9743 -47.7399 33.6068
rradius 27.9591
rwrist 26.7829
rhand -47.8017 -34.3729
rfingers 7.12502
rthumb -20.4778 -63.313
lclavicle -6.36111e-015 -6.04305e-014
lhumerus 1.42336 14.455 10.1385
lradius 36.5245
lwrist 24.2432
lhand -56.0784 264.475
lfingers 7.12502
lthumb -28.4111 -123.389
rfemur 186.207 237.212 -143.458
rtibia -81.6593
rfoot 164.732 -127.576
rtoes -22.3803
lfemur -84.5818 32.1071 16.9966
ltibia 78.0553
lfoot -18.3418 -24.563
ltoes 2.52554
388
root 10.0118 14.5319 -12.4214 48.2301 16.7412 290.072
lowerback 31.3421 -0.955291 -4.91395
upperback 11.9718 -3.64192 -10.4954
thorax -3.66171 -1.84625 -7.26015
lowerneck -21.2892 5.06484 1.23456
upperneck 31.077 -2.05345 26.7162
head 15.1402 2.10447 10.9758
rclavicle 5.24792e-014 1.33583e-013
rhumerus -38.4441 -45.5783 34.8375
rradius 27.0513
rwrist 29.9469
rhand -46.0683 -33.7214
rfingers 7.12502
rthumb -18.8114 -62.8318
lclavicle 5.24792e-014 1.33583e-013
lhumerus 1.26291 13.8529 11.9655
lradius 36.7214
lwrist 24.6342
lhand -56.0193 264.951
lfingers 7.12502
lthumb -28.3547 -122.921
rfemur 188.575 236.183 -142.555
rtibia -82.9831
rfoot 164.815 -130.536
rtoes -23.9454
lfemur -89.963 32.4269 12.0529
ltibia 81.2304
lfoot -16.6839 -25.4931
ltoes 3.76546
389
root 9.96656 14.3322 -12.5317 49.1888 16.2306 292.8
lowerback 30.9997 -1.50013 -5.08191
upperback 12.3383 -4.21207 -10.2879
thorax -3.14471 -2.11105 -6.78453
lowerneck -21.0595 4.63302 0.413309
upperneck 30.7312 -2.47591 27.1424
head 15.0161 1.83905 11.2104
rclavicle -6.99722e-014 -3.18055e-015
rhumerus -42.1826 -43.4372 35.1962
rradius 26.199
rwrist 32.0436
rhand -44.7213 -32.4912
rfingers 7.12502
rthumb -17.5154 -61.7221
lclavicle -6.99722e-014 -3.18055e-015
lhumerus 1.37874 13.6621 13.9241
lradius 36.5804
lwrist 24.7503
lhand -55.8481 264.246
lfingers 7.12502
lthumb -28.191 -123.654
rfemur 191.689 235.718 -142.415
rtibia -84.0958
rfoot 164.901 -132.535
rtoes -25.9254
lfemur -95.0823 31.4518 6.5944
ltibia 84.2927
lfoot -16.1564 -24.1661
ltoes 4.19071
390
root 9.93213 14.1503 -12.6227 49.899 15.6017 295.4
lowerback 30.6347 -1.95175 -5.30961
upperback 12.8177 -4.72307 -10.019
thorax -2.68376 -2.37138 -6.66259
lowerneck -20.8819 4.24412 -0.208217
upperneck 30.5105 -2.98396 27.6962
head 15.0087 1.56377 11.4946
rclavicle -9.85972e-014 1.62208e-013
rhumerus -45.247 -40.9415 34.2704
rradius 25.6678
rwrist 32.3629
rhand -43.4176 -32.3621
rfingers 7.12502
rthumb -16.2605 -61.7002
lclavicle -9.85972e-014 1.62208e-013
lhumerus 1.66402 13.6644 15.7336
lradius 36.4926
lwrist 24.6216
lhand -55.6219 264.273
lfingers 7.12502
lthumb -27.9748 -123.663
rfemur 195.02 235.067 -142.428
rtibia -84.8962
rfoot 163.73 -133.664
rtoes -24.9822
lfemur -99.198 30.0176 1.59974
ltibia 87.0637
lfoot -15.8724 -22.0733
ltoes 4.557
391
root 9.93118 14.0017 -12.6981 50.5727 15.0875 297.82
lowerback 30.5837 -2.46552 -5.40079
upperback 13.009 -5.30698 -10.0355
thorax -2.48483 -2.63627 -6.4423
lowerneck -20.6029 3.97236 -0.497974
upperneck 30.3919 -3.40206 28.0769
head 15.0063 1.34389 11.6494
rclavicle 8.5875e-014 9.85972e-014
rhumerus -48.0082 -38.411 32.0922
rradius 25.6475
rwrist 31.3723
rhand -43.0887 -32.587
rfingers 7.12502
rthumb -15.9437 -61.9508
lclavicle 8.5875e-014 9.85972e-014
lhumerus 1.88119 13.4643 17.1287
lradius 36.3433
lwrist 24.8316
lhand -55.8475 264.195
lfingers 7.12502
lthumb -28.1905 -123.705
rfemur 197.669 234.152 -141.893
rtibia -85.2984
rfoot 163.634 -133.981
rtoes -24.7838
lfemur -102.56 28.0826 -2.38678
ltibia 89.4024
lfoot -15.6166 -19.7412
ltoes 6.07527
